<svg width="10" height="10" viewBox="0 0 10 10" fill="none" xmlns="http://www.w3.org/2000/svg">
<path d="M2.23625 3.125H0V10H2.23625V3.125Z" fill="#353A45"/>
<path d="M8.3275 3.20563C8.30375 3.19813 8.28125 3.19 8.25625 3.18312C8.22625 3.17625 8.19625 3.17063 8.16562 3.16563C8.04687 3.14188 7.91688 3.125 7.76438 3.125C6.46063 3.125 5.63375 4.07313 5.36125 4.43938V3.125H3.125V10H5.36125V6.25C5.36125 6.25 7.05125 3.89625 7.76438 5.625C7.76438 7.16813 7.76438 10 7.76438 10H10V5.36062C10 4.32187 9.28813 3.45625 8.3275 3.20563Z" fill="#353A45"/>
<path d="M1.09375 2.1875C1.69781 2.1875 2.1875 1.69781 2.1875 1.09375C2.1875 0.489689 1.69781 0 1.09375 0C0.489689 0 0 0.489689 0 1.09375C0 1.69781 0.489689 2.1875 1.09375 2.1875Z" fill="#353A45"/>
</svg>
